<svg xmlns="http://www.w3.org/2000/svg" viewBox="0 0 497.79 517.36"><defs><style>.cls-1{fill:#337040;stroke:#337040;}.cls-2{fill:#fff;}</style></defs><title>Logo01</title><g id="svg2"><g id="layer2"><path id="path2997" class="cls-1" d="M34.29,511,73.93,217.79,99.29,28.14l2,1.07,4.29,2.32,2.86,1.79,2.68.54,3.39-.18,4.82-.36h2l1.43,2.86,3.93,2.5,2.32,1.25,2.68.54,8,11.79,1.79,2.68h3.21l3.57,5.54,18.21,12.32,1.43-.54,3.21,2.5,3,2.68h2.32l3.21-2-3.93,65.71,4.29,2.68.36,8.75-.89-.18.18,3h1.61v5.71L178.93,166l-.36,10.54,47.5,1.79-5.54,1.43.36,1.25,5,1.79.71,4.64,1.25.36-.18,3-1.61.18.54,2.86,1.79,3.93,2.68,2.32-1.25,2.14-.36,3.93-2,.36-1.07,4.64.54,3.57,3.57-.18.54,8-2.5,2v3.21l1.61-.36.18,5.36,4.64-.18,4.46-4.11,5.36.54-.18,3-1.25.18.36,3.39,4.11-1.25-.18-2,.89-1.07.89-2.32,2.14-.71,1.25.36.71,2v1.79l2.68-.71,1.25,2.14-5.36,2.68-.18,2.86,4.29,2.14,3,5.18,1.25,2.5-.18,3v1.61h-1.43l-.18.89-.36,2.14-.89,1.61-.54,1.25-1.07,1.61-1.43,1.07L252,266l-1.43,3.21-1.61,1.43-1.07.36v2.5l.89.71,3-.36.89.36.18,2.68.36,1.25,2,.36,2,.36.54,2.32L253.93,284l-.18,7h-2.68l1.79,4.29,5.18-.71,3.21,3.21,2.86.54V301l8.21,7.32-3.57,6.25,8.57-.71.18-3.21,2.86-.36.54,1.61,2.86-.71,2.32,4.82,1.07,5.18,1.25-.71,2.32,6.07-1.61.54.18,2,1.79,4.11,2.68-1.79-.36,4.64,3,.54,8,6.79,2.86.36,2,1.25-1.43,2-3.75,1.43.36,1.79,4.46.54.54,2.32,3,.36,2.86,8-1.07,6.07-3.93,1.79-1.25,3.57,3.39,2,4.46,6.43,5.71.36L318.57,394l3,1.79.71,6.25,3.39-.36-.18,6.07h3.57l4.29,3.21v2h-1.61l-.89,3.39,2.5.71v1.43l-2.14.71v2.14l2.68,4.82-.89,2.5s-2.86-.54-.71.89,5.71.71,5.71.71l.54-1.25,1.61.54,2,1.07v3.21l2.86-.71,1.79-2.86,4.11-.54s3.93,6.25,4.64,7.14a9.44,9.44,0,0,0,2.5,1.79l.89,4.82,3.75-.54.89,3.75h1.61l-.18,3.57,12.68,9.64,7.32-.36,1.79,2.86,2.86,3.93,1.25,7.68.36,8.39,2.5-.71,3.39,16.43,1.61-.89,2.14-1.07.54,2,1.61-.36,2-4.11,3.39.71v1.79l4.64-.54.54-2,.18-3.75h2.14l.18,3.57,3.39-.54v-3.75l4.29-.36,3,2.86,7.14.18-.54,1.25,3-.54,3.21-4.11,2.5.54.89-1.79,5,.89-.89-6.61,7.14-.36.54,2.14,1.07.18-.18,3.39,1.79.71-.18,3.21-1.25,2.68-1.25,2.32,5.54,6.07.18,2.32,1.61,2,5.36-.71.54,7.14,11.61,15.18L395.36,538l-58.21,4.46-18.93.71-21.79.71-61.43.36L82.14,534.93l-2-5.54.71-3L82.14,523l1.07-2.14,1.43-3.39-1.43-1.61-15.36-.54L60.18,523S50,514.39,49.29,514.39s-2.68,3.21-2.68,3.21h-2Z" transform="translate(17.22 -27.36)"/></g></g><g id="Layer_2" data-name="Layer 2"><path class="cls-2" d="M241.61,445.73v1.56a13,13,0,0,1-2.95,4.75,60.7,60.7,0,0,1-6.31,6.08.69.69,0,0,1-.83.14,15.5,15.5,0,0,1-1.52-.71,17.72,17.72,0,0,1-6-5.93,7.68,7.68,0,0,1-1.2-3.26,3.68,3.68,0,0,1,.74-2.69,2.37,2.37,0,0,1,1.55-.95,77.23,77.23,0,0,1,8.75-1.12,17.67,17.67,0,0,1,5.16.32l.25.06A3.38,3.38,0,0,1,241.61,445.73Z" transform="translate(17.22 -27.36)"/><path class="cls-2" d="M237,468.74c.43.32.42.64,0,.93a3.63,3.63,0,0,1-1.06.49c-1.37.33-2.73.69-4.12.92-3.78.64-7.6,1-11.42,1.33-3,.26-6.1.43-9.13.8a17.68,17.68,0,0,1-6.78-.78,44.81,44.81,0,0,1-8.57-3.37c-2.81-1.4-5.6-2.86-8.4-4.27a53.3,53.3,0,0,0-6.26-2.7l-.33-.14,0-.11c.63.09,1.27.18,1.9.29a81.18,81.18,0,0,1,10.58,2.33c1.25.38,2.46.85,3.68,1.29a34.45,34.45,0,0,0,5,1.32,64,64,0,0,0,12.93,1c3.06,0,6.11-.12,9.17-.19,3.75-.09,7.5-.06,11.24.22A3,3,0,0,1,237,468.74Z" transform="translate(17.22 -27.36)"/><path class="cls-2" d="M223.18,477.45a1.1,1.1,0,0,1,.76.56,1.12,1.12,0,0,1-.9.47,13.29,13.29,0,0,1-1.87.25c-2.19.08-4.38.19-6.56.15-1.47,0-2.94-.27-4.4-.43l-7.43-.86c-2.48-.29-4.95-.59-7.43-.85a94.9,94.9,0,0,0-12.52-.74,20.14,20.14,0,0,0-12.92,4.89,61.61,61.61,0,0,0-6.35,6.32c-4,4.53-7.9,9.1-11.86,13.65l-3.89,4.46c-.14.16-.27.33-.41.51h-.25a1.11,1.11,0,0,1-.42-1.33,9.87,9.87,0,0,1,.77-1.92,43.85,43.85,0,0,1,2.62-4c1.58-2.09,3.28-4.09,4.92-6.13a12.09,12.09,0,0,0,.94-1.32c1.53-2.65,3-5.31,4.57-7.95a37.86,37.86,0,0,1,4.73-6.51,24.55,24.55,0,0,1,6-4.74,3.49,3.49,0,0,1,1.41-.42,59.41,59.41,0,0,1,8.32.07c2.1.12,4.2.28,6.29.46q3.73.33,7.44.72c2.39.26,4.78.53,7.16.84,6.12.8,12.24,1.61,18.27,3C221.2,476.81,222.19,477.14,223.18,477.45Z" transform="translate(17.22 -27.36)"/><path class="cls-2" d="M213,398.29a6.46,6.46,0,0,1-.22,1.66c-.27,1-.91,1.27-1.78.61a7.19,7.19,0,0,1-1.3-1.27c-.72-.94-1.38-1.94-2.08-2.9a3.48,3.48,0,0,0-.68-.77c-.64-.49-1.29-1-2-1.38a6,6,0,0,0-1.37-.6,2.4,2.4,0,0,0-3,1.18,7.47,7.47,0,0,0-.91,2.76c-.22,1.56-.38,3.14-.52,4.71-.2,2.09-.33,4.19-.54,6.28a11.79,11.79,0,0,1-.5,2.15,3.83,3.83,0,0,1-.52,1,1.5,1.5,0,0,1-1.75.67,5.33,5.33,0,0,1-1.41-.62,10.44,10.44,0,0,1-2.8-2.58,85,85,0,0,0-6.41-7.86,27.94,27.94,0,0,0-3.73-3.44,10.1,10.1,0,0,0-3.06-1.68,4.19,4.19,0,0,0-4.05.69,9.83,9.83,0,0,0-1.66,1.64c-.8,1-1.53,2.15-2.26,3.26-1.16,1.75-2.25,3.55-3.45,5.28a23.15,23.15,0,0,1-4.91,5.25,18.23,18.23,0,0,1-9.22,3.71,25.83,25.83,0,0,1-6.94-.13c-.79-.13-1.56-.37-2.33-.57a28.83,28.83,0,0,0-6-.95,15.47,15.47,0,0,0-5.71.72,11.39,11.39,0,0,0-5.83,4.46,21,21,0,0,0-2.84,6.45,44.49,44.49,0,0,0-1.42,8c-.37,4.25-.65,8.51-1,12.77-.26,3.74-.52,7.48-1.14,11.18a34,34,0,0,1-2.37,8.42,15.73,15.73,0,0,1-3.35,4.91,1.15,1.15,0,0,1-1.09.35,234.66,234.66,0,0,1-24.33-5.21C83.4,465.2,78.33,463.93,73.2,463c-3.35-.63-6.7-1.15-10.09-1.5a108.65,108.65,0,0,0-15.91-.51h-.71v-.14c.08-.09.2-.16.24-.27a7.32,7.32,0,0,1,2.09-2.7,21.36,21.36,0,0,1,4-2.74c1.71-.9,3.45-1.74,5.16-2.6a7.85,7.85,0,0,0,.86-.46c6.21-4.23,12.41-8.5,18.37-13.09a123.15,123.15,0,0,0,13.65-12,109.94,109.94,0,0,0,12.22-15.5c4.27-6.43,8.13-13.1,11.92-19.82a14,14,0,0,1,2.53-3.34A39.65,39.65,0,0,0,128,370.86c1.06-3.39,1.84-6.86,2.61-10.32a89.1,89.1,0,0,1,3-10.9,36.67,36.67,0,0,1,5.89-10.72,7.55,7.55,0,0,1,4.15-2.51,1.38,1.38,0,0,1,1.78,1.09,7,7,0,0,1,.05,2.9,43.8,43.8,0,0,1-2.08,8.17c-1.47,4.35-3,8.68-4.5,13a61,61,0,0,0-2.18,7.33c-.13.57-.42,1.09-.59,1.66-.36,1.25-.73,2.49-1,3.75a3.23,3.23,0,0,0,0,1.28.93.93,0,0,0,1.17.84,4.68,4.68,0,0,0,1.37-.41,31,31,0,0,0,2.78-1.56c2.16-1.4,4.29-2.86,6.44-4.28a41.61,41.61,0,0,1,5.41-3.1,13.64,13.64,0,0,1,3.5-1.18,5.34,5.34,0,0,1,2.45.05,3.14,3.14,0,0,1,.94.42,7.15,7.15,0,0,0,3.47,1.16,20.76,20.76,0,0,0,6.21-.33,49.52,49.52,0,0,0,10.25-3.07,3.34,3.34,0,0,0,1.16-.8,26.42,26.42,0,0,0,3-4,70,70,0,0,0,4.71-9c1.77-4,3.48-8,5.22-12,.25-.58.52-1.15.78-1.72a12.83,12.83,0,0,1,1.82-3h.39a5.1,5.1,0,0,1,.4,2.08c0,.84,0,1.69,0,2.53a3.09,3.09,0,0,1-.1.71,98.14,98.14,0,0,0-1.68,9.87,39.37,39.37,0,0,0,.2,11.52,32.45,32.45,0,0,0,3.74,10,93.21,93.21,0,0,0,5.87,9c1.81,2.51,3.65,5,5.46,7.52a6.45,6.45,0,0,1,.71,1.24,27.55,27.55,0,0,1,1.93,7.19A28.62,28.62,0,0,1,213,398.29Z" transform="translate(17.22 -27.36)"/><path class="cls-2" d="M184.27,420.76a1.87,1.87,0,0,1,.47,2.41,10.12,10.12,0,0,1-.83,1.23.54.54,0,0,1-.68.2,15.43,15.43,0,0,1-3.44-1.35,12.25,12.25,0,0,0-4.68-1.47c-1.79-.17-3.58-.31-5.37-.38a5.15,5.15,0,0,1-2.6-.9c-.64-.42-.62-.9.09-1.18a8.76,8.76,0,0,1,2.18-.6c1.43-.19,2.89-.26,4.32-.38a31.1,31.1,0,0,1,7.65,1,11.13,11.13,0,0,1,1.75.67A4.71,4.71,0,0,1,184.27,420.76Z" transform="translate(17.22 -27.36)"/></g><g id="Layer_3" data-name="Layer 3"><path class="cls-2" d="M279.6,346.86c.75.68.75,1.32-.15,1.79a6.38,6.38,0,0,1-2.17.63,25.45,25.45,0,0,1-6.72-.28,110.38,110.38,0,0,1-16.78-3.92q-3-1-6.12-1.87a90,90,0,0,1-14.76-6.13,235.33,235.33,0,0,1-27.56-16.67,338,338,0,0,1-43.26-35.18,162.28,162.28,0,0,1-17.12-19,65.55,65.55,0,0,1-5.46-8.44c-.21-.4-.4-.81-.7-1.4a7.39,7.39,0,0,1,1.39.25c2,.78,4.09,1.49,6,2.42,6,2.84,11.66,6.14,17.35,9.5,17.62,10.41,34.8,21.53,51.86,32.85,17.64,11.7,35.13,23.58,52.18,36.12,3.6,2.65,7.08,5.44,10.6,8.17C278.69,346,279.16,346.45,279.6,346.86Z" transform="translate(17.22 -27.36)"/><path class="cls-2" d="M264.52,501.8l.63,8c0,.11,0,.22,0,.48a2.12,2.12,0,0,1-1.46-1.16,26.53,26.53,0,0,1-1.61-3.27,70.77,70.77,0,0,1-3-11.27c-1.58-7.81-2.74-15.69-3.69-23.6-1-8.14-1.9-16.27-2.74-24.42-.77-7.36-1.44-14.72-2.07-22.09q-1.1-12.77-2.07-25.53c-.57-7.3-1.07-14.61-1.6-21.9q-.65-9.07-1.28-18.14c0-.37,0-.76,0-1.14a1,1,0,0,1,.79-1,1.24,1.24,0,0,1,1,.25,4.71,4.71,0,0,1,1.07,1.6c.68,1.94,1.37,3.88,1.86,5.87a144.2,144.2,0,0,1,2.76,15.29c.79,5.85,1.55,11.71,2.23,17.57.63,5.42,1.17,10.85,1.7,16.26q.89,9.05,1.74,18.1c.43,4.79.83,9.57,1.23,14.36q.77,8.9,1.51,17.78c.35,4.1.67,8.21,1,12.31q.65,8.16,1.31,16.31Q264.16,497.11,264.52,501.8Z" transform="translate(17.22 -27.36)"/><path class="cls-2" d="M136,255.24a1.67,1.67,0,0,1,.3,2.1,14.61,14.61,0,0,1-1.6,2.63c-1.31,1.59-2.66,3.15-4.1,4.62a216.13,216.13,0,0,1-16.27,14.56C98.84,291.95,82.83,304,66.71,316Q29.86,343.2-7.93,369.1c-2.64,1.8-5.32,3.54-8,5.31a2.85,2.85,0,0,1-1.3.5c2.85-2.88,5.63-5.84,8.55-8.63,11-10.54,22.57-20.54,34.17-30.43C45.27,319,65.4,302.62,86.11,286.94c9.63-7.31,19.37-14.48,29.54-21,3.91-2.51,7.94-4.83,12-7.16a36.15,36.15,0,0,1,7.32-3.2,3.13,3.13,0,0,0,.57-.33Z" transform="translate(17.22 -27.36)"/><path class="cls-2" d="M32.55,512.32c0,1.09,0,2.18,0,3.39A2.55,2.55,0,0,1,31,514.15a35.52,35.52,0,0,1-1.62-4.26A74.72,74.72,0,0,1,27.07,498q-1.23-10.1-2.22-20.22c-.44-4.52-.72-9-1-13.58q-.7-11.37-1.3-22.72-.3-5.66-.49-11.31-.7-20.7-1.33-41.4c-.25-8.57-.39-17.15-.57-25.73v-.57a1,1,0,0,1,.71-.93.86.86,0,0,1,1.13.27,7.5,7.5,0,0,1,1.11,2c.6,2.08,1.19,4.18,1.59,6.3A164,164,0,0,1,26.82,387c.62,7.87,1.21,15.74,1.74,23.61.33,5,.54,9.9.77,14.85q.56,11.66,1.05,23.32c.2,4.38.35,8.76.5,13.15Q31.44,477.95,32,494C32.2,500.11,32.37,506.21,32.55,512.32Z" transform="translate(17.22 -27.36)"/></g></svg>