<svg id="Layer_1" data-name="Layer 1" xmlns="http://www.w3.org/2000/svg" viewBox="0 0 139.73 139.73"><defs><style>.cls-1{fill:#8cc540;}.cls-2{fill:#03a550;}</style></defs><title>logo</title><path class="cls-1" d="M117.38,23.06,119,24.79l.87.91,1,1.12c.69.8,1.47,1.7,2.24,2.75l1.23,1.61L125.55,33c.86,1.21,1.64,2.58,2.5,4,.41.7.79,1.44,1.19,2.17l.6,1.11.55,1.15c.36.78.75,1.54,1.08,2.34l1,2.41c.33.8.59,1.64.89,2.45l.43,1.22.37,1.24c.23.82.5,1.63.7,2.45l.58,2.42c.21.79.31,1.59.47,2.36s.3,1.53.38,2.27c.21,1.49.42,2.89.5,4.2l.16,1.88.06,1.7c0,1.07.07,2,0,2.76l0,2.41a.8.8,0,1,1-1.61,0v-.08l.17-2.35c.07-.75.09-1.66.1-2.7l0-1.67-.06-1.85c0-1.29-.15-2.68-.28-4.15,0-.74-.18-1.49-.29-2.26s-.2-1.56-.37-2.35l-.48-2.41c-.17-.81-.4-1.62-.61-2.45l-.32-1.24-.38-1.23c-.27-.82-.49-1.65-.81-2.46l-.92-2.42c-.31-.8-.69-1.57-1-2.35l-.52-1.16L129,39.21c-.39-.74-.74-1.48-1.14-2.19-.82-1.4-1.57-2.78-2.43-4l-1.21-1.8L123,29.61c-.76-1.06-1.54-2-2.22-2.76l-1-1.13L119,24.8Z"/><path class="cls-1" d="M133.59,91.93l-.52,1.5c-.36,1-.89,2.38-1.6,4s-1.59,3.51-2.66,5.47a66.73,66.73,0,0,1-8,11.51c-.73.85-1.47,1.66-2.16,2.4s-1.4,1.45-2,2.08c-1.29,1.26-2.42,2.25-3.23,2.94l-1.27,1.06a2.86,2.86,0,0,1-3.66-4.39l.18-.13.06,0,1.24-.88c.78-.57,1.89-1.4,3.17-2.46.64-.53,1.33-1.13,2-1.75s1.45-1.34,2.19-2.08A62.49,62.49,0,0,0,125.63,101c1.16-1.76,2.14-3.47,2.93-5s1.37-2.77,1.77-3.67l.62-1.46a1.42,1.42,0,0,1,2.64,1Z"/><path class="cls-1" d="M76.49,137.5l-1.58.14c-.48,0-1.15.08-1.93.11s-1.64.07-2.56.06-1.92,0-3,0-2.17-.12-3.33-.2-2.34-.22-3.55-.41-2.42-.39-3.64-.61-2.42-.51-3.6-.82-2.33-.64-3.45-1-2.18-.69-3.17-1.09-1.94-.74-2.79-1.11-1.64-.71-2.32-1-1.28-.6-1.77-.85l-1.52-.78a4.9,4.9,0,0,1,4.45-8.72l.07,0,.17.09,1.29.69c.41.23.91.48,1.5.77s1.24.62,2,.93,1.53.67,2.38,1,1.77.66,2.7,1,1.93.66,2.95.94,2,.56,3.09.83,2.09.48,3.14.65,2.07.35,3.07.5,2,.25,2.89.32,1.8.15,2.6.17,1.54.06,2.17.06,1.19,0,1.71,0l1.59,0a4.18,4.18,0,0,1,.45,8.34Z"/><path class="cls-1" d="M22.37,118.1l-1.73-1.83-.86-.91-1.07-1.26c-.76-.9-1.64-1.91-2.44-3L15,109.31l-1.3-1.94c-.92-1.31-1.74-2.79-2.63-4.3-.43-.76-.81-1.56-1.23-2.36L9.19,99.5l-.56-1.25c-.37-.84-.77-1.67-1.11-2.54l-1-2.61c-.34-.87-.59-1.77-.88-2.65l-.41-1.32-.35-1.33c-.22-.89-.47-1.76-.66-2.64l-.52-2.6c-.19-.85-.27-1.7-.41-2.53S3,78.41,3,77.62c-.14-1.59-.29-3.08-.31-4.47l-.07-2,0-1.79c0-1.13,0-2.11.1-2.91l.18-2.53a4.2,4.2,0,0,1,8.4.35v.25l0,2.23c0,.71,0,1.57,0,2.55l.05,1.57.15,1.73c.07,1.21.28,2.51.47,3.88.07.69.23,1.38.36,2.1s.24,1.45.43,2.18L13.31,83c.19.75.44,1.5.65,2.26l.34,1.14.4,1.13c.28.75.51,1.52.82,2.26L16.44,92c.31.74.67,1.44,1,2.16l.5,1.06.56,1c.37.68.72,1.36,1.1,2,.8,1.27,1.5,2.54,2.31,3.65L23,103.53,24.17,105c.72,1,1.41,1.76,2,2.47l.85,1,.87.91,1.21,1.27.32.34.08.09h0l-.1-.1h0l.11.11a5,5,0,1,1-7.09,7Z"/><path class="cls-1" d="M7.66,44.92l.62-1.46.81-1.79c.33-.66.67-1.43,1.11-2.23.85-1.62,1.9-3.47,3.14-5.37a67.47,67.47,0,0,1,8.92-11c.79-.8,1.6-1.55,2.34-2.23s1.5-1.33,2.2-1.91c1.38-1.15,2.57-2.05,3.42-2.67l1.34-1a2.14,2.14,0,0,1,2.63,3.38l-.05,0-1.18,1c-.74.64-1.78,1.56-3,2.73-.59.58-1.24,1.24-1.88,1.92s-1.33,1.45-2,2.25A61.71,61.71,0,0,0,18.76,37.3c-1,1.81-1.8,3.55-2.44,5.06-.33.75-.6,1.45-.86,2.07L14.87,46l-.52,1.5a3.59,3.59,0,0,1-6.78-2.37Z"/><path class="cls-1" d="M67,3.47l1.59,0c.5,0,1.12,0,1.84,0s1.52,0,2.39.06,1.82.1,2.82.18,2,.21,3.13.34,2.2.32,3.32.53,2.26.45,3.4.7,2.25.56,3.35.89,2.16.68,3.19,1,2,.72,2.93,1.1S96.71,9,97.5,9.32s1.51.69,2.14,1,1.18.58,1.63.83l1.4.75a.1.1,0,0,1,0,.13.1.1,0,0,1-.13,0l-1.41-.72c-.45-.24-1-.5-1.64-.79s-1.35-.63-2.16-1-1.66-.68-2.59-1-1.92-.66-2.94-1-2.1-.63-3.2-.89-2.22-.52-3.34-.76S83,5.52,81.91,5.38,79.68,5.11,78.62,5s-2.11-.16-3.09-.18-1.91-.05-2.77,0-1.64,0-2.33.06-1.29.06-1.8.1L67,5.09a.81.81,0,0,1-.14-1.62Z"/><path class="cls-2" d="M29.88,33.5H57.52q8.48,0,12.8,3.31a10.75,10.75,0,0,1,4.33,9q0,6.22-5.76,9.49a14.92,14.92,0,0,1,5.18,4.18,9.73,9.73,0,0,1,1.76,5.95,11,11,0,0,1-4,8.88q-4,3.33-11.15,3.33H29.88Zm19.56,8.88V51h.49a7.91,7.91,0,0,0,4.51-1,3.86,3.86,0,0,0,1.33-3.34q0-4.28-5.15-4.28Zm0,16v9.55h.61q3.36,0,4.79-1a4.07,4.07,0,0,0,1.43-3.54q0-5-5.47-5Z"/><path class="cls-1" d="M68.4,68.72H96q8.48,0,12.8,3.31a10.75,10.75,0,0,1,4.33,9q0,6.22-5.76,9.49a14.91,14.91,0,0,1,5.18,4.18,9.72,9.72,0,0,1,1.76,5.95,11,11,0,0,1-4,8.88q-4,3.33-11.15,3.33H68.4ZM88,77.61V86.2h.49a7.91,7.91,0,0,0,4.51-1,3.86,3.86,0,0,0,1.33-3.34q0-4.28-5.15-4.28Zm0,16v9.55h.61q3.36,0,4.79-1a4.07,4.07,0,0,0,1.43-3.54q0-5-5.47-5Z"/></svg>